<?xml version="1.0" encoding="UTF-8" standalone="no" ?>
<!DOCTYPE svg PUBLIC "-//W3C//DTD SVG 1.1//EN" "http://www.w3.org/Graphics/SVG/1.1/DTD/svg11.dtd">
<svg xmlns="http://www.w3.org/2000/svg" xmlns:xlink="http://www.w3.org/1999/xlink" version="1.1" width="2400" height="2400" viewBox="933.33 -596.67 2400 2400" xml:space="preserve">
<desc>Created with Fabric.js 5.2.4</desc>
<defs>
</defs>
<rect x="0" y="0" width="100%" height="100%" fill="transparent"></rect>
<g transform="matrix(Infinity NaN NaN Infinity 0 0)" id="a9bcff9f-7298-4979-965d-4ac0aed6be08"  >
</g>
<g transform="matrix(1 0 0 1 1200 1200)" id="95b0a735-41ab-4be9-b370-8adbd692d7e3"  >
<rect style="stroke: none; stroke-width: 1; stroke-dasharray: none; stroke-linecap: butt; stroke-dashoffset: 0; stroke-linejoin: miter; stroke-miterlimit: 4; fill: rgb(255,255,255); fill-rule: nonzero; opacity: 1; visibility: hidden;" vector-effect="non-scaling-stroke"  x="-1200" y="-1200" rx="0" ry="0" width="2400" height="2400" />
</g>
<g transform="matrix(4.7 0 0 4.7 2056.86 1133.64)"  >
<path style="stroke: none; stroke-width: 1; stroke-dasharray: none; stroke-linecap: butt; stroke-dashoffset: 0; stroke-linejoin: miter; stroke-miterlimit: 4; fill: rgb(0,0,0); fill-rule: nonzero; opacity: 1;" vector-effect="non-scaling-stroke"  transform=" translate(-397.99, -1358.71)" d="M 252.93004 1695.7864 C 252.6856 1695.542 252.4856 1686.2676 252.4856 1675.1766 L 252.4856 1655.0113000000001 L 256.82033 1654.7878 L 261.15506 1654.5642 L 261.15406 1662.3975 L 261.15306000000004 1670.2309 L 272.15306000000004 1670.2309 L 283.15306000000004 1670.2309 L 283.15306000000004 1662.5642 C 283.15306000000004 1658.3475 283.37806000000006 1654.8577 283.65306000000004 1654.809 C 283.92806 1654.76 285.87806000000006 1654.6443 287.98639000000003 1654.5511999999999 L 291.81972 1654.3819999999998 L 291.81972 1675.0049 L 291.81972 1695.6278 L 287.80190000000005 1695.4293 L 283.78408 1695.2309 L 283.58845 1687.8612 C 283.48085000000003 1683.8078 283.17116000000004 1680.1328 282.90026 1679.6945 C 282.55285 1679.1324 279.39529 1678.8975 272.18504 1678.8975 C 263.4783 1678.8975 261.90237 1679.0539 261.55771000000004 1679.9521 C 261.33515000000006 1680.5321 261.15306000000004 1684.4321 261.15306000000004 1688.6187 L 261.15306000000004 1696.2309 L 257.26417000000004 1696.2309 C 255.12528000000003 1696.2309 253.17528000000004 1696.0309 252.93083000000004 1695.7864 z M 312.4856 1675.2309 C 312.4856 1662.1286 312.72269 1654.8928 313.15227 1654.8842 C 313.51894 1654.8742 320.64394 1654.8642 328.9856 1654.8552 L 344.15227 1654.8392 L 344.35075 1658.8682999999999 L 344.54923 1662.8973999999998 L 332.85075 1662.8973999999998 L 321.15227 1662.8973999999998 L 321.15227 1666.5640999999998 L 321.15227 1670.2307999999998 L 331.4856 1670.2307999999998 L 341.81894 1670.2307999999998 L 341.81894 1674.8973999999998 L 341.81894 1679.5640999999998 L 331.4856 1679.5640999999998 L 321.15227 1679.5640999999998 L 321.15227 1683.5640999999998 L 321.15227 1687.5640999999998 L 333.15227 1687.5640999999998 L 345.15227 1687.5640999999998 L 345.15227 1691.5640999999998 L 345.15227 1695.5640999999998 L 328.81894 1695.5640999999998 L 312.4856 1695.5640999999998 Z M 359.81894 1694.9805000000001 C 359.81894 1694.4711000000002 361.98103 1689.1946 363.81392 1685.2309 C 364.15303 1684.4975 365.50909 1681.4975 366.8274 1678.5642 C 368.14570000000003 1675.6309 371.20724 1669.1293 373.63081 1664.1163000000001 L 378.03731 1655.0016 L 382.32971 1654.7829000000002 C 384.69052999999997 1654.6626 386.87976 1654.7249000000002 387.19466 1654.9209 C 387.50957 1655.1171000000002 388.25994 1656.4671 388.86214 1657.9209 C 389.97033 1660.5962000000002 391.33511 1663.6905000000002 394.22693000000004 1670.084 C 395.10254000000003 1672.0198 395.81894000000005 1673.7745 395.81894000000005 1673.9832000000001 C 395.81894000000005 1674.1919 396.23335000000003 1675.3080000000002 396.73985000000005 1676.4635 C 397.24636000000004 1677.6189000000002 398.11077000000006 1679.6142 398.66077000000007 1680.8975 C 399.2107700000001 1682.1809 400.11077000000006 1684.2809 400.66077000000007 1685.5642 C 401.2107700000001 1686.8475 402.1129900000001 1688.9475 402.6657000000001 1690.2309 C 405.0237400000001 1695.7059 405.0898900000001 1695.5642 400.1762800000001 1695.5642 C 396.57103000000006 1695.5642 395.7107700000001 1695.3537000000001 395.4095900000001 1694.3975 C 395.2074700000001 1693.7559 394.4668800000001 1692.0775 393.7638500000001 1690.6679000000001 C 393.0608200000001 1689.2582000000002 392.4856100000001 1687.6832000000002 392.4856100000001 1687.1679000000001 C 392.4856100000001 1686.4053000000001 390.65417000000014 1686.2309000000002 382.6483500000001 1686.2309000000002 L 372.8110900000001 1686.2309000000002 L 371.9257900000001 1688.3975000000003 C 371.4388800000001 1689.5892000000003 370.7928500000001 1691.1642000000002 370.49017000000015 1691.8975000000003 C 370.18749000000014 1692.6309000000003 369.7720600000001 1693.7559000000003 369.56698000000017 1694.3975000000003 C 369.2585300000002 1695.3627000000004 368.3844100000002 1695.5642000000003 364.50653000000017 1695.5642000000003 C 361.92836000000017 1695.5642000000003 359.81894000000017 1695.3015000000003 359.81894000000017 1694.9805000000003 z M 387.81894 1677.0228000000002 C 387.81894 1676.3583 387.2572 1674.6333000000002 386.57064 1673.1894000000002 C 385.88407 1671.7456000000002 384.9238 1669.4392000000003 384.43671 1668.0642000000003 C 383.85775 1666.4299000000003 383.13578 1665.5642000000003 382.35168 1665.5642000000003 C 381.69201 1665.5642000000003 381.15227 1665.9468000000002 381.15227 1666.4145000000003 C 381.15227 1666.8822000000002 380.26169 1669.0572000000004 379.1732 1671.2478000000003 C 378.0847 1673.4385000000004 377.1847 1675.9059000000004 377.1732 1676.7309000000002 C 377.1532 1678.1632000000002 377.39299 1678.2309000000002 382.48561 1678.2309000000002 C 387.19023 1678.2309000000002 387.81894 1678.0885000000003 387.81894 1677.0228000000002 z M 420.64264000000003 1675.0642000000003 L 420.81894000000005 1654.5642000000003 L 425.1522800000001 1654.5642000000003 L 429.48561000000007 1654.5642000000003 L 429.6639200000001 1671.0642000000003 L 429.84224000000006 1687.5642000000003 L 438.8305900000001 1687.5642000000003 L 447.8189500000001 1687.5642000000003 L 447.8189500000001 1691.5642000000003 L 447.8189500000001 1695.5642000000003 L 434.1426400000001 1695.5642000000003 L 420.46634000000006 1695.5642000000003 z M 471.66393000000005 1679.0642000000003 L 471.48561000000007 1662.5642000000003 L 465.48561000000007 1662.5162000000003 L 459.48561000000007 1662.4682000000003 L 459.48561000000007 1658.6871000000003 L 459.48561000000007 1654.9059000000004 L 476.48562000000004 1654.7347000000004 L 493.48562000000004 1654.5636000000004 L 493.48562000000004 1658.5636000000004 L 493.48562000000004 1662.5636000000004 L 487.48562000000004 1662.5636000000004 L 481.48562000000004 1662.5636000000004 L 481.30730000000005 1679.0636000000004 L 481.12899000000004 1695.5636000000004 L 476.48562000000004 1695.5636000000004 L 471.84224000000006 1695.5636000000004 z M 511.15228 1674.8975000000003 L 511.15228 1654.2309000000002 L 515.48562 1654.2309000000002 L 519.8189500000001 1654.2309000000002 L 519.8189500000001 1662.2309000000002 L 519.8189500000001 1670.2309000000002 L 530.46446 1670.2309000000002 L 541.10997 1670.2309000000002 L 541.2977999999999 1662.3975000000003 L 541.4856199999999 1654.5642000000003 L 545.31895 1654.3643000000002 L 549.15229 1654.1643000000001 L 549.15229 1674.8643000000002 L 549.15229 1695.5642000000003 L 545.15229 1695.5642000000003 L 541.15229 1695.5642000000003 L 541.15229 1687.5944000000002 L 541.15229 1679.6246 L 538.98562 1679.2289 C 537.79395 1679.0112000000001 533.0689500000001 1678.9226 528.48562 1679.0320000000002 L 520.15229 1679.2309000000002 L 519.9651 1687.3975000000003 L 519.77791 1695.5642000000003 L 515.4651 1695.5642000000003 L 511.15228 1695.5642000000003 z M 42.485577 1610.4311 C 40.818221 1610.1688 38.284272 1609.3584 35.152243 1608.0858 C 33.590288 1607.4512 32.835616 1607.0773000000002 29.485576 1605.2784000000001 C 23.879939999999998 1602.2684000000002 15.513110999999999 1594.2998000000002 13.731006999999998 1590.2737000000002 C 13.233670999999998 1589.1501000000003 12.599992999999998 1588.2309000000002 12.322833999999999 1588.2309000000002 C 12.045675 1588.2309000000002 11.818907999999999 1587.6909000000003 11.818907999999999 1587.0309000000002 C 11.818907999999999 1586.3709000000001 11.555148999999998 1585.5459000000003 11.232776 1585.1975000000002 C 9.3922925 1583.2088 7.1522415 1571.9915000000003 7.1522415 1564.7636000000002 C 7.1522415 1546.3849000000002 17.996697 1531.1841000000002 35.485577 1525.0483000000002 C 40.185817 1523.3992 44.559325 1522.8134000000002 51.90115 1522.8494 C 65.592146 1522.9164 73.300416 1525.8597 82.137626 1534.3941 L 87.484006 1539.5572 L 81.107136 1545.9341 L 74.730266 1552.311 L 71.525706 1549.3687 C 68.473656 1546.5664 64.140826 1544.0322 59.246055999999996 1542.1866 C 56.116586 1541.0065 45.198739999999994 1540.9874 42.75457299999999 1542.1576 C 41.689958999999995 1542.6673 39.834967999999996 1543.5653 38.63237099999999 1544.1532 C 34.97260599999999 1545.9422 31.71177099999999 1549.6528 29.37522699999999 1554.6870999999999 C 27.326144999999993 1559.1019999999999 27.153480999999992 1559.9886 27.168065999999992 1566.0203999999999 C 27.18096599999999 1571.3554 27.475796999999993 1573.2739 28.764180999999994 1576.407 C 30.803182999999994 1581.3653 33.966384999999995 1585.4488 37.77945799999999 1588.0452 C 42.94488599999999 1591.5624 45.568752999999994 1592.3398 52.48557799999999 1592.402 C 58.09409599999999 1592.452 59.26096599999999 1592.2481 62.68147599999999 1590.616 C 64.80588599999999 1589.6023 68.295976 1587.151 70.43724599999999 1585.1685 C 72.57850599999999 1583.1861 74.56309599999999 1581.5641 74.84743599999999 1581.5641 C 75.456336 1581.5641 80.94256599999999 1585.7735 85.02950599999998 1589.3764 C 87.58382599999999 1591.6282 87.83526599999999 1592.101 87.26981599999998 1593.5882000000001 C 85.85401599999997 1597.3120000000001 73.85842599999998 1607.5641 70.91707599999998 1607.5641 C 70.43530599999998 1607.5641 69.83553599999998 1607.7697 69.58424599999998 1608.021 C 67.92663599999997 1609.6786 63.451625999999976 1610.4111 54.15224599999998 1610.5471 C 48.652243999999975 1610.6271 43.402243999999975 1610.5751 42.48557699999998 1610.431 z M 233.15226 1610.4311 C 231.1356 1610.2802 229.2006 1609.874 228.85226 1609.5283 C 228.50393 1609.1826999999998 227.55384 1608.8998 226.74096 1608.8998 C 225.25608 1608.8998 217.88354 1605.2679999999998 214.15226 1602.6984 C 210.7426 1600.3503 204.51396000000003 1593.9573 204.49942000000001 1592.7909 C 204.49142 1592.1809 205.86514000000003 1590.5309 207.55125 1589.1242 C 209.23737 1587.7175 211.86237 1585.4571 213.38459 1584.1010999999999 C 218.52287 1579.5239 218.46226000000001 1579.5221999999999 223.25013 1584.3695999999998 C 225.57964 1586.7280999999998 228.87936000000002 1589.3237999999997 230.58284 1590.1379999999997 C 236.73606 1593.0787999999998 247.0714 1593.5381999999997 251.10504 1591.0502999999997 C 253.72079 1589.4368999999997 254.4856 1588.2009999999996 254.4856 1585.5873999999997 C 254.4856 1581.7000999999996 253.04888 1580.3169999999996 246.15226 1577.5651999999995 C 245.41893000000002 1577.2725999999996 243.01893 1576.5302999999994 240.81893000000002 1575.9155999999996 C 238.61893000000003 1575.3008999999995 236.21893000000003 1574.5624999999995 235.48560000000003 1574.2745999999995 C 234.75226000000004 1573.9867999999994 232.95226000000002 1573.3898999999994 231.48560000000003 1572.9480999999996 C 222.40135000000004 1570.2122999999997 214.09365000000003 1564.5698999999995 211.30538000000004 1559.2422999999997 C 206.92554000000004 1550.8734999999997 208.89725000000004 1538.7811999999997 215.81893000000005 1531.5609999999997 C 219.92488000000006 1527.2779999999998 222.76965000000004 1525.7844999999998 230.48560000000006 1523.8612999999998 C 234.75780000000006 1522.7963999999997 247.54446000000007 1522.5830999999998 248.15226000000007 1523.5665 C 248.37888000000007 1523.9332 249.67158000000006 1524.2375 251.02494000000007 1524.2429 C 254.73765000000006 1524.2579 261.75131000000005 1527.0089 268.98138000000006 1531.287 C 270.9920000000001 1532.4767 271.9847700000001 1535.0854 270.65227000000004 1535.6776 C 270.06096 1535.9404 266.83678000000003 1539.7134 264.48560000000003 1542.894 C 263.56893 1544.134 262.19299 1545.8908 261.42795 1546.7979 L 260.03697 1548.4472 L 256.9745 1546.3402 C 255.29013999999998 1545.1813000000002 253.60020999999998 1544.2332000000001 253.21908999999997 1544.2332000000001 C 252.83797999999996 1544.2332000000001 251.53673999999995 1543.6775000000002 250.32745999999997 1542.9982000000002 C 244.34174999999996 1539.6363000000001 232.54251999999997 1539.5358000000003 229.16629999999998 1542.8180000000002 C 227.79859 1544.1476000000002 228.02603 1548.6204000000002 229.54680999999997 1550.3008000000002 C 231.01019999999997 1551.9178000000002 235.94947999999997 1554.2359000000001 241.48559999999998 1555.9038000000003 C 243.68559999999997 1556.5666000000003 245.77059999999997 1557.3619000000003 246.11892999999998 1557.6711000000003 C 246.46725999999998 1557.9802000000002 247.29632999999998 1558.2332000000004 247.96130999999997 1558.2332000000004 C 248.62628999999998 1558.2332000000004 249.76628999999997 1558.5332000000003 250.49463999999998 1558.8998000000004 C 251.22299999999998 1559.2665000000004 252.41485999999998 1559.8665000000003 253.14321999999999 1560.2332000000004 C 253.87158 1560.5998000000004 254.76337999999998 1560.8998000000004 255.12499999999997 1560.8998000000004 C 256.10168 1560.8998000000004 263.29384 1564.3846000000003 264.72986999999995 1565.5536000000004 C 270.78232999999994 1570.4806000000003 272.68727999999993 1574.6081000000004 272.7357999999999 1582.8998000000004 C 272.77109999999993 1588.9316000000003 271.5161799999999 1595.5665000000004 270.34005999999994 1595.5665000000004 C 270.0534399999999 1595.5665000000004 269.8189299999999 1595.9923000000003 269.8189299999999 1596.5128000000004 C 269.8189299999999 1598.1043000000004 263.4649799999999 1604.5177000000003 260.0430799999999 1606.3802000000005 C 258.2674999999999 1607.3466000000005 255.4656899999999 1608.5809000000006 253.81683999999993 1609.1230000000005 C 250.63547999999992 1610.1692000000005 239.26939999999993 1610.8886000000005 233.15225999999993 1610.4311000000005 z M 104.14348000000001 1607.4180000000001 C 104.58042000000002 1605.8605000000002 105.01254000000002 1604.7194000000002 106.48559000000002 1601.2332000000001 C 106.95037000000002 1600.1332000000002 107.56153000000002 1598.6332000000002 107.84371000000002 1597.8998000000001 C 114.91685000000001 1579.5183000000002 120.14862000000002 1566.0744000000002 120.94529000000001 1564.2332000000001 C 121.50056000000001 1562.9498 122.18836000000002 1561.2998000000002 122.47375000000001 1560.5665000000001 C 123.61954000000001 1557.6223000000002 125.09444 1553.7430000000002 126.14899000000001 1550.8998000000001 C 126.76099 1549.2498 127.71768000000002 1546.8498000000002 128.27496000000002 1545.5665000000001 C 129.43898000000002 1542.8860000000002 129.62330000000003 1542.4354 132.50213000000002 1535.2332000000001 C 133.67463000000004 1532.2998000000002 135.21160000000003 1528.6171000000002 135.91762000000003 1527.0493000000001 L 137.20128000000003 1524.1987000000001 L 147.25589000000002 1524.3826000000001 L 157.31051000000002 1524.5665000000001 L 158.58226000000002 1527.8998000000001 C 159.28172 1529.7332000000001 160.14611000000002 1531.9082 160.50313000000003 1532.7332000000001 C 160.86015000000003 1533.5582000000002 161.41212000000002 1534.9082 161.72973000000002 1535.7332000000001 C 162.34471000000002 1537.3306000000002 163.21625000000003 1539.5205 164.31658000000002 1542.2332000000001 C 164.68841 1543.1498000000001 165.51447000000002 1545.2498 166.15226 1546.8998000000001 C 168.82448000000002 1553.813 169.39104 1555.2194000000002 170.98662000000002 1558.8998000000001 C 171.70194 1560.5498000000002 173.11088 1564.1498000000001 174.1176 1566.8998000000001 C 175.12431 1569.6498000000001 176.34643 1572.7998000000002 176.83341000000001 1573.8998000000001 C 177.32039 1574.9998 178.96341 1579.1998 180.48456000000002 1583.2332000000001 C 183.47762 1591.1693 183.70506 1591.7411000000002 185.65493 1596.2332000000001 C 186.37115 1597.8832000000002 187.50064 1600.7332000000001 188.16489 1602.5665000000001 C 188.82915000000003 1604.3998000000001 189.62305 1606.1848000000002 189.92912 1606.5332 C 190.23518 1606.8815000000002 190.48559 1607.5565000000001 190.48559 1608.0332 C 190.48559 1608.7051000000001 188.27549 1608.8998000000001 180.64833 1608.8998000000001 L 170.81106999999997 1608.8998000000001 L 170.01727999999997 1607.0665000000001 C 169.58069999999998 1606.0582000000002 168.42670999999996 1603.2832 167.45285999999996 1600.8998000000001 C 166.47900999999996 1598.5165000000002 165.17351999999997 1595.5165000000002 164.55176999999995 1594.2332000000001 L 163.42131999999995 1591.8998000000001 L 146.70566999999994 1591.7219000000002 L 129.99001999999993 1591.5440000000003 L 129.17051999999993 1593.7219000000002 C 128.71979999999994 1594.9198000000001 128.0812999999999 1596.5748000000003 127.75163999999992 1597.3998000000001 C 127.42197999999992 1598.2248000000002 126.88298999999992 1599.5748 126.55388999999992 1600.3998000000001 C 126.22478999999993 1601.2248000000002 125.37782999999992 1603.3998000000001 124.67174999999992 1605.2332000000001 L 123.38798999999992 1608.5665000000001 L 113.55277999999991 1608.7513000000001 L 103.71756999999991 1608.9361000000001 z M 157.51418 1573.8178 C 157.26496 1572.4893 156.81657 1570.9143000000001 156.51777 1570.3178 C 155.68073 1568.6467 154.81482000000003 1566.4644 152.11948 1559.2332000000001 C 150.75279 1555.5665000000001 149.41743000000002 1552.2665000000002 149.15201000000002 1551.8998000000001 C 148.88660000000002 1551.5332 148.47236 1550.4082 148.23148 1549.3998000000001 C 147.57879 1546.6676000000002 145.98488 1547.141 145.1285 1550.3214 C 144.72050000000002 1551.8366 144.14393 1553.5616 143.84725 1554.1547 C 143.1456 1555.5575000000001 141.78227 1558.8252 139.7815 1563.8998000000001 C 139.49237 1564.6332000000002 138.75591 1566.7332000000001 138.14493 1568.5665000000001 C 137.53394 1570.3998000000001 136.76064 1572.4208 136.42648 1573.0575000000001 C 136.09232 1573.6942000000001 135.81892 1574.5111000000002 135.81892 1574.873 C 135.81892 1575.2668 139.76622999999998 1575.6126000000002 145.65225999999998 1575.7346 C 151.06059 1575.8467 156.04397999999998 1576.0047 156.72644999999997 1576.0858 C 157.80584999999996 1576.2140000000002 157.90834999999998 1575.9189000000001 157.51417999999998 1573.8178 z M 299.81893 1566.5665000000001 L 299.81893 1524.2332000000001 L 309.04587000000004 1524.2332000000001 L 318.2728 1524.2332000000001 L 318.72185 1540.6996000000001 C 319.04723 1552.6309 319.39785 1557.3101000000001 319.99492000000004 1557.6894000000002 C 321.27702000000005 1558.5037000000002 355.67870000000005 1558.3551000000002 357.22310000000004 1557.5286 C 358.4944100000001 1556.8482000000001 358.52382000000006 1556.3256000000001 358.07975000000005 1542.3038000000001 C 357.82683000000003 1534.3177 357.82040000000006 1526.9848000000002 358.06545000000006 1526.0084000000002 L 358.51101000000006 1524.2332000000001 L 367.49831000000006 1524.2332000000001 L 376.48561000000007 1524.2332000000001 L 376.48561000000007 1566.5665000000001 L 376.48561000000007 1608.8998000000001 L 367.48561000000007 1608.8998000000001 L 358.48561000000007 1608.8998000000001 L 358.48561000000007 1592.6998 C 358.48561000000007 1580.9887 358.2639300000001 1576.2782000000002 357.68561000000005 1575.6998 C 357.1010800000001 1575.1153000000002 351.80412000000007 1574.8998000000001 338.01894000000004 1574.8998000000001 L 319.15227000000004 1574.8998000000001 L 319.15227000000004 1591.8998000000001 L 319.15227000000004 1608.8998000000001 L 309.48560000000003 1608.8998000000001 L 299.81893 1608.8998000000001 z M 409.15228 1566.5495 L 409.15228 1524.1996000000001 L 419.91071 1524.3828 L 430.66913999999997 1524.566 L 433.29199 1529.566 C 438.64309 1539.7669 443.04702 1548.038 445.71577 1552.8993 C 447.22545 1555.6493 449.88735 1560.6743000000001 451.63109000000003 1564.066 C 453.37483000000003 1567.4577 455.16619000000003 1570.2327 455.61188000000004 1570.2327 C 456.05757000000006 1570.2327 457.65746 1567.6077 459.16718000000003 1564.3993 C 463.19440000000003 1555.8411 472.09414000000004 1537.9525 472.51703000000003 1537.566 C 472.71764 1537.3827 473.7452 1535.4327 474.80050000000006 1533.2327 C 475.85580000000004 1531.0327 477.45653000000004 1528.1077 478.3576800000001 1526.7327 L 479.99613000000005 1524.2327 L 490.90754000000004 1524.2327 L 501.81895000000003 1524.2327 L 501.81895000000003 1566.566 L 501.81895000000003 1608.8993 L 492.49345000000005 1608.8993 L 483.16794000000004 1608.8993 L 482.99344 1583.1214 C 482.88076 1566.4743 482.5799 1557.2638 482.14407 1557.1187 C 481.77288 1556.995 480.94966 1558.0201 480.31467 1559.3966 C 479.67969 1560.7731 478.09774999999996 1563.6993 476.79924 1565.8993 C 475.50073 1568.0993 474.24584 1570.3493 474.01059 1570.8993 C 473.77535 1571.4493 473.40551999999997 1572.0493000000001 473.18874999999997 1572.2327 C 472.97198999999995 1572.416 471.251 1575.566 469.36433999999997 1579.2327 C 467.47767999999996 1582.8993 464.46840999999995 1588.7493 462.67706999999996 1592.2327 C 458.00723999999997 1601.3134 457.31548999999995 1602.2327 455.15227999999996 1602.2327 C 453.10405 1602.2327 452.40122999999994 1601.3733 448.65437999999995 1594.287 C 446.10518999999994 1589.4659000000001 441.88692999999995 1581.6142 438.23844999999994 1574.8993 C 436.94348999999994 1572.516 434.59433999999993 1567.9461000000001 433.01811999999995 1564.7439 C 431.44190999999995 1561.5417 429.77727999999996 1558.9167 429.31893999999994 1558.9105 C 428.66688999999997 1558.9005 428.48560999999995 1564.3378 428.48560999999995 1583.8993 L 428.48560999999995 1608.8993 L 418.81893999999994 1608.8993 L 409.15227999999996 1608.8993 z M 531.81895 1566.5665000000001 L 531.81895 1524.2332000000001 L 563.4729199999999 1524.2332000000001 L 595.1268899999999 1524.2332000000001 L 595.4997299999999 1525.7332000000001 C 595.7047999999999 1526.5582000000002 595.7855099999999 1530.6832000000002 595.6790999999998 1534.8998000000001 L 595.4856199999998 1542.5665000000001 L 572.2971999999999 1542.7418000000002 L 549.1087799999999 1542.9172000000003 L 549.2971999999999 1550.4085000000002 L 549.4856199999998 1557.8998000000001 L 569.9856199999998 1558.0761000000002 L 590.4856199999998 1558.2524000000003 L 590.4856199999998 1566.9095000000002 C 590.4856199999998 1573.3705000000002 590.2742299999998 1575.5761000000002 589.6522899999998 1575.6043000000002 C 589.1939599999997 1575.6253000000002 580.3192299999997 1575.6043000000002 569.9306699999997 1575.5683000000001 C 556.3331799999997 1575.5153 550.7776599999997 1575.7142000000001 550.0973299999997 1576.2788 C 549.4000199999997 1576.8575 549.1549599999997 1578.7456 549.1624999999997 1583.4815 C 549.1684999999997 1587.0116 549.3931099999996 1590.2304000000001 549.6624999999997 1590.6344000000001 C 549.9928099999997 1591.1298000000002 557.3945199999997 1591.5120000000002 572.3941399999997 1591.8082000000002 C 584.6271599999997 1592.0498000000002 594.9021599999996 1592.4119 595.2274799999997 1592.613 C 595.5527899999996 1592.814 595.8189599999997 1596.5608 595.8189599999997 1600.9392 L 595.8189599999997 1608.8998000000001 L 563.8189599999997 1608.8998000000001 L 531.8189499999997 1608.8998000000001 z M 626.2536 1601.7961 C 626.01455 1597.8891 625.8189600000001 1578.8391 625.8189600000001 1559.4628 L 625.8189600000001 1524.2332000000001 L 644.98563 1524.2432000000001 C 666.218 1524.2532 670.50515 1524.7717 681.3189600000001 1528.6394 C 681.96063 1528.8689 682.48563 1529.3217 682.48563 1529.6456 C 682.48563 1529.9695000000002 682.8719100000001 1530.2345 683.34403 1530.2345 C 684.7791 1530.2345 690.24842 1536.3398 692.30237 1540.2345 C 695.46765 1546.2365 696.16183 1550.4445 695.17633 1557.656 C 693.79446 1567.768 690.91464 1572.7598 683.82912 1577.3248999999998 C 681.62995 1578.7418999999998 679.828 1580.2657 679.8248 1580.7113 C 679.8217999999999 1581.1568 681.46896 1584.0791 683.48563 1587.2051999999999 C 685.5023 1590.3311999999999 687.1523 1593.0322999999999 687.1523 1593.2076 C 687.1523 1593.3827999999999 688.5023 1595.6131 690.1523 1598.1638 C 691.8023 1600.7144 693.1523 1603.0987 693.1523 1603.4623000000001 C 693.1523 1603.8259 693.3773 1604.2234 693.6523 1604.3456 C 693.9273 1604.4678000000001 694.69426 1605.5428000000002 695.3566599999999 1606.7345 L 696.5610099999999 1608.9011 L 686.1899899999999 1608.9011 C 680.4859299999998 1608.9011 675.8189599999998 1608.6318 675.8189599999998 1608.3026 C 675.8189599999998 1607.9734 674.6696399999998 1605.7984 673.2649099999999 1603.4693 C 671.8601799999999 1601.1401 669.5688899999999 1597.1345 668.1731599999998 1594.5678 C 664.2488099999998 1587.3512 664.2464499999999 1587.3471 662.6068999999998 1585.0584000000001 L 661.0614999999998 1582.9011 L 653.8280899999997 1582.9011 C 649.8497099999997 1582.9011 646.1201399999998 1583.0832 645.5401499999997 1583.3058 C 644.6300499999996 1583.6550000000002 644.4856299999997 1585.4355 644.4856299999997 1596.3058 L 644.4856299999997 1608.9011 L 635.5869399999997 1608.9011 L 626.6882499999997 1608.9011 z M 670.3194100000001 1566.8313 C 672.9697500000001 1565.4166 674.90309 1562.906 676.17043 1559.2332000000001 C 676.93413 1557.0200000000002 676.33084 1551.4614000000001 675.06938 1549.0882000000001 C 674.17961 1547.4144000000001 669.68247 1544.2332000000001 668.20594 1544.2332000000001 C 667.66971 1544.2332000000001 667.0455800000001 1543.9332000000002 666.8189600000001 1543.5665000000001 C 666.57131 1543.1658000000002 662.03426 1542.8998000000001 655.4462800000001 1542.8998000000001 L 644.4856300000001 1542.8998000000001 L 644.4856300000001 1555.1221 C 644.4856300000001 1561.8443 644.6856300000002 1567.5443 644.9300700000001 1567.7887 C 645.1745200000001 1568.0332 650.3961700000001 1568.2332000000001 656.5337400000001 1568.2332000000001 C 666.5978400000001 1568.2332000000001 667.9507100000001 1568.0956 670.3194100000001 1566.8313 z M 725.66939 1608.3998000000001 C 725.54385 1608.1248 725.45115 1589.1498000000001 725.46338 1566.2332000000001 L 725.48558 1524.5665000000001 L 757.15225 1524.5665000000001 L 788.8189199999999 1524.5665000000001 L 788.8189199999999 1533.5665000000001 L 788.8189199999999 1542.5665000000001 L 765.9855899999999 1542.7419000000002 L 743.1522499999999 1542.9173000000003 L 743.1522499999999 1550.5753000000002 L 743.1522499999999 1558.2332000000001 L 763.8189199999998 1558.2332000000001 L 784.4855899999998 1558.2332000000001 L 784.4855899999998 1566.8902 L 784.4855899999998 1575.5472 L 763.9855899999998 1575.7235 L 743.4855899999998 1575.8998000000001 L 743.4855899999998 1583.8998000000001 L 743.4855899999998 1591.8998000000001 L 765.9855899999998 1592.0754000000002 L 788.4855899999998 1592.2509000000002 L 788.4855899999998 1600.5754000000002 L 788.4855899999998 1608.8998000000001 L 757.1916 1608.8998000000001 C 739.9799 1608.8998000000001 725.79489 1608.6748000000002 725.66934 1608.3998000000001 z M 432.48561 1481.8405 C 425.00404000000003 1480.3129000000001 421.53023 1479.4899 420.15228 1478.9184 C 419.41894 1478.6143 417.76894000000004 1478 416.48561 1477.5533 C 408.68044000000003 1474.8368 393.51833 1466.8802 391.15228 1464.2592 C 390.96894000000003 1464.0561 389.61894 1463.0036 388.15228 1461.9202 C 383.22276 1458.2791 381.24203 1455.9299 377.52138 1449.3121 C 375.48504 1445.6901 373.81894 1442.631 373.81894 1442.5141 C 373.81894 1442.3972 372.73489 1439.9606 371.40994 1437.0995 C 370.08499 1434.2384 368.73499 1431.2225 368.40994 1430.3975 C 368.08489000000003 1429.5725 367.54398000000003 1428.2225 367.20792 1427.3975 C 366.87186 1426.5725 366.41441 1425.1475 366.19138 1424.2309 C 365.96835 1423.3142 365.30715999999995 1420.9142 364.72208 1418.8975 C 363.50286 1414.6951000000001 362.98548 1411.7984000000001 361.40930000000003 1400.3500000000001 C 360.35237 1392.6730000000002 360.35028000000005 1391.4738000000002 361.37730000000005 1382.0166000000002 C 363.04899000000006 1366.6229 365.32449 1356.1126000000002 368.47549000000004 1349.2309000000002 C 373.1301 1339.0654000000002 375.57069 1334.1963000000003 377.19462000000004 1331.8360000000002 C 378.27134000000007 1330.2711000000002 379.15229000000005 1328.7805000000003 379.15229000000005 1328.5237000000002 C 379.15229000000005 1328.2669 380.20229000000006 1326.5953000000002 381.48563000000007 1324.8090000000002 C 382.76896000000005 1323.0226000000002 383.81896000000006 1321.4072 383.81896000000006 1321.2191000000003 C 383.81896000000006 1320.9612000000002 387.26713000000007 1315.4186000000002 388.96141000000006 1312.9531000000002 C 389.06640000000004 1312.8003 389.30023000000006 1312.8233000000002 389.48103000000003 1313.0041 C 389.66184000000004 1313.1849000000002 389.21184000000005 1314.5704 388.48103000000003 1316.083 C 387.75023000000004 1317.5956 387.15229000000005 1319.1517000000001 387.15229000000005 1319.5411000000001 C 387.15229000000005 1319.9304000000002 386.86175000000003 1320.7699000000002 386.50664000000006 1321.4066000000003 C 385.53589000000005 1323.1471000000004 384.06061000000005 1328.0917000000002 383.2274100000001 1332.3975000000003 C 382.81943000000007 1334.5059000000003 382.1698400000001 1337.8553000000002 381.78388000000007 1339.8407000000002 C 380.9978100000001 1343.8842000000002 381.0308100000001 1367.5559000000003 381.8261800000001 1370.1962 C 382.10807000000005 1371.1319 382.71305000000007 1374.4475 383.17059000000006 1377.5642 C 385.05019000000004 1390.3677 389.7813500000001 1404.6008 397.2423600000001 1419.8975 C 400.45794000000006 1426.4902 402.0142800000001 1429.1827 407.4601400000001 1437.5748 C 409.8224600000001 1441.2151000000001 412.5491800000001 1445.6156 413.5195100000001 1447.3536000000001 C 415.95607000000007 1451.7179 427.76391000000007 1468.5081000000002 431.2490700000001 1472.5642000000003 C 432.8243300000001 1474.3975000000003 435.6513300000001 1477.4725000000003 437.53129000000007 1479.3975000000003 L 440.9493800000001 1482.8975000000003 L 438.88416000000007 1482.8115000000003 C 437.74829000000005 1482.7645000000002 434.86895000000004 1482.3272000000002 432.48561000000007 1481.8406000000002 z M 513.76669 1441.355 C 510.57980000000003 1438.2373 501.65783000000005 1428.4266 500.32900000000006 1426.5788 C 500.05953000000005 1426.2041 499.13480000000004 1424.9975 498.2740600000001 1423.8975 C 495.6504900000001 1420.5447000000001 491.4830100000001 1414.1006 489.43568000000005 1410.2309 C 488.36874000000006 1408.2142000000001 487.3278700000001 1406.4142 487.1226300000001 1406.2309 C 486.52152000000007 1405.6939 484.6971500000001 1401.5424 483.1675600000001 1397.2309 C 482.3870900000001 1395.0309 481.4643600000001 1392.7099 481.1170600000001 1392.0733 C 480.7697700000001 1391.4366 480.4856200000001 1390.3293 480.4856200000001 1389.6126 C 480.4856200000001 1388.8959 480.2187600000001 1388.1445999999999 479.8926100000001 1387.9431 C 479.5664500000001 1387.7414999999999 479.1381300000001 1386.5988 478.94078000000013 1385.4037 C 478.74343000000016 1384.2087000000001 478.25674000000015 1381.8809 477.8592600000001 1380.2309 C 474.1698900000001 1364.9157 473.8965100000001 1337.3473 477.1155200000001 1305.2309 C 477.4830300000001 1301.5642 477.9817900000001 1294.5142 478.2238800000001 1289.5642 L 478.66403000000014 1280.5642 L 468.05145000000016 1280.7748000000001 C 460.56220000000013 1280.9234000000001 455.87613000000016 1280.6878000000002 452.12891000000013 1279.9749000000002 C 444.20127000000014 1278.4663000000003 442.94413000000014 1278.1827 441.4856100000001 1277.5737000000001 C 440.7522800000001 1277.2675000000002 438.56172000000015 1276.5289000000002 436.6177100000001 1275.9324000000001 C 423.1696100000001 1271.806 408.0720900000001 1260.2938000000001 399.4144900000001 1247.5642000000003 C 396.3064900000001 1242.9944000000003 391.6678000000001 1234.5098000000003 390.48477000000014 1231.2309000000002 C 389.10132000000016 1227.3965000000003 388.29085000000015 1224.3994000000002 387.7183400000001 1221.0007000000003 C 384.0246700000001 1199.0733000000002 386.7208500000001 1183.4515000000004 396.7108700000001 1168.8975000000003 C 401.5942700000001 1161.7832000000003 412.48180000000013 1152.7989000000002 419.8189400000001 1149.8291000000002 C 422.2022800000001 1148.8644000000002 424.7522800000001 1147.8299000000002 425.4856100000001 1147.5300000000002 C 430.2214800000001 1145.5938 445.68263000000013 1144.8821000000003 452.6488700000001 1146.2797000000003 C 462.9842400000001 1148.3531000000003 471.9089200000001 1153.8593000000003 474.7961200000001 1159.9436000000003 C 476.6635100000001 1163.8788000000002 475.98309000000006 1169.2545000000002 473.1166500000001 1173.2123000000004 C 468.8501400000001 1179.1032000000005 464.0441700000001 1180.8605000000005 450.15228000000013 1181.6094000000003 C 438.95032000000015 1182.2132000000004 434.65189000000015 1182.7558000000004 434.10876000000013 1183.6346000000003 C 433.90608000000014 1183.9626000000003 432.89469000000014 1184.2309000000002 431.86123000000015 1184.2309000000002 C 430.82777000000016 1184.2309000000002 429.6087400000001 1184.6809000000003 429.15228000000013 1185.2309000000002 C 428.69582000000014 1185.7809000000002 427.8962300000001 1186.2309000000002 427.37542000000013 1186.2309000000002 C 426.85461000000015 1186.2309000000002 424.94499000000013 1187.6185000000003 423.13183000000015 1189.3145000000002 C 420.01475000000016 1192.2302000000002 417.53322000000014 1196.4020000000003 415.88525000000016 1201.497 C 414.92557000000016 1204.4641000000001 414.94262000000015 1215.8120000000001 415.91135000000014 1218.8502 C 417.56881000000016 1224.0487 420.79913000000016 1230.8637 422.50581000000017 1232.7625 C 423.0669100000002 1233.3868 424.3957300000002 1235.0464 425.4587500000002 1236.4506000000001 C 427.72846000000015 1239.4488000000001 432.9727900000002 1243.5758 439.4495200000002 1247.4606 C 443.57151000000016 1249.9330000000002 446.2755200000002 1250.959 456.15231000000017 1253.7978 C 459.6777700000002 1254.8110000000001 478.71105000000017 1254.6886 482.9112700000002 1253.6256 C 484.6938400000002 1253.1744 487.9523100000002 1252.361 490.15231000000017 1251.8179 C 492.35231000000016 1251.2749000000001 494.7523100000002 1250.5858 495.4856500000002 1250.2866 C 496.2189800000002 1249.9874 497.5689800000002 1249.4443999999999 498.4856500000002 1249.0798 C 514.8614700000002 1242.5678 530.6002000000002 1229.1782 541.4076600000002 1212.5642 C 543.6790800000002 1209.0724 547.4112300000002 1201.6753 549.2279800000002 1197.0642 C 551.4317400000002 1191.4709 552.2802400000003 1188.6828 552.8291400000003 1185.2309 C 553.0623700000003 1183.7642 553.5186600000003 1181.8142 553.8431300000003 1180.8975 C 555.4608700000003 1176.3272 556.3242500000003 1155.54 555.1860800000003 1148.5642 C 553.5768100000003 1138.7011 551.2317600000002 1129.1132 549.1530100000003 1123.8976 C 544.6193000000003 1112.5223 538.5603500000003 1101.9224 531.2427200000003 1092.5642 C 528.8297400000004 1089.4784 517.1572600000003 1077.8704 514.1369700000002 1075.553 C 513.4120700000002 1074.9968000000001 511.61898000000025 1073.6485 510.1523100000002 1072.5568 C 508.68565000000024 1071.4650000000001 507.3356500000002 1070.385 507.1523100000002 1070.1566 C 505.71766000000025 1068.3697 491.43409000000025 1060.5467 484.81898000000024 1057.9248 C 482.25231000000025 1056.9075 479.4023100000002 1055.7701 478.48565000000025 1055.3972 C 473.94755000000026 1053.5511000000001 474.68233000000026 1053.7578 467.1523100000002 1052.2088 C 459.38972000000024 1050.6119 451.5082700000002 1050.1118000000001 439.81898000000024 1050.4741000000001 C 428.38591000000025 1050.8286 419.95501000000024 1051.8656 418.7613500000002 1053.0642 C 418.4874900000002 1053.3392000000001 417.7093500000002 1053.5642 417.03215000000023 1053.5642 C 416.3549500000002 1053.5642 415.2799500000002 1053.8292000000001 414.6432600000002 1054.1531 C 414.00657000000024 1054.477 412.7356400000002 1055.0459 411.8189700000002 1055.4174 C 407.37761000000023 1057.2174 401.9837900000002 1059.6921 400.4856400000002 1060.6172000000001 C 399.5689700000002 1061.1833000000001 398.29397000000023 1061.8129000000001 397.6523100000002 1062.0164000000002 C 397.01064000000025 1062.2199000000003 396.4856400000002 1062.6514000000002 396.4856400000002 1062.9753000000003 C 396.4856400000002 1063.2992000000004 396.1656200000002 1063.5642000000003 395.77449000000024 1063.5642000000003 C 395.14347000000026 1063.5642000000003 394.14629000000025 1064.2366000000002 388.85376000000025 1068.2309000000002 C 384.82530000000025 1071.2712000000001 376.06490000000025 1080.4199000000003 373.26453000000026 1084.5113000000003 C 370.4489600000003 1088.6248000000003 367.0451400000003 1095.1360000000004 362.78165000000024 1104.5642000000003 C 362.11841000000027 1106.0309000000002 361.34905000000026 1108.4309000000003 361.0719600000002 1109.8976000000002 C 360.79487000000023 1111.3642000000002 360.28030000000024 1113.6142000000002 359.92847000000023 1114.8976000000002 C 359.42660000000024 1116.7282000000002 359.27408000000025 1116.8885000000002 359.22054000000026 1115.6416000000002 C 359.18304000000023 1114.7674000000002 359.42628000000025 1112.9674000000002 359.76114000000024 1111.6416000000002 C 361.7620900000002 1103.7188 361.95649000000026 1102.1999 361.10144000000025 1101.1696000000002 C 360.6121000000002 1100.5800000000002 359.66432000000026 1100.2911000000001 358.86844000000025 1100.4890000000003 C 358.10790000000026 1100.6781000000003 354.33564000000024 1101.0243000000003 350.4856400000003 1101.2585000000004 C 343.8585800000003 1101.6615000000004 341.4499700000003 1101.9752000000003 333.41828000000027 1103.4814000000003 C 327.0676600000003 1104.6723000000004 316.50386000000026 1107.6809000000003 311.99783000000025 1109.5820000000003 C 309.5287100000003 1110.6237000000003 307.40590000000026 1111.3734000000004 307.28047000000026 1111.2479000000003 C 307.15504000000027 1111.1225000000004 307.79353000000026 1109.8674000000003 308.69933000000026 1108.4587000000004 C 309.60513000000026 1107.0501000000004 310.69506000000024 1104.6976000000004 311.12139000000025 1103.2309000000005 C 312.42236000000025 1098.7553000000005 317.8952200000002 1086.5430000000006 320.99439000000024 1081.2000000000005 C 322.9352100000002 1077.8540000000005 326.7432700000002 1071.9495000000004 327.4716600000002 1071.1569000000004 C 327.8460100000002 1070.7495000000004 329.0458100000002 1069.2495000000004 330.1378900000002 1067.8235000000004 C 332.9307900000002 1064.1767000000004 346.0139300000002 1050.8996000000004 346.8189700000002 1050.8951000000004 C 347.1856400000002 1050.8951000000004 348.3856400000002 1050.0599000000004 349.4856400000002 1049.0437000000004 C 354.5090400000002 1044.4028000000003 369.2504400000002 1035.8265000000004 378.8189700000002 1031.9781000000005 C 381.3856400000002 1030.9458000000004 384.0856400000002 1029.8502000000005 384.8189700000002 1029.5435000000004 C 385.55230000000023 1029.2367000000004 387.3523100000002 1028.6243000000004 388.8189700000002 1028.1826000000005 C 390.2856400000002 1027.7409000000005 392.0856400000002 1027.1436000000006 392.8189700000002 1026.8554000000006 C 393.5523100000002 1026.5672000000006 395.0523100000002 1026.1614000000006 396.1523100000002 1025.9536000000005 C 397.25231000000025 1025.7459000000006 399.6523100000002 1025.2533000000005 401.4856400000002 1024.8590000000006 C 406.68162000000024 1023.7415000000007 407.1914500000002 1023.6473000000007 412.1523100000002 1022.8888000000006 C 425.06292000000025 1020.9148000000006 441.35496000000023 1020.6254000000006 450.1523100000002 1022.2136000000006 C 451.9856400000002 1022.5446000000006 456.4856400000002 1023.3376000000006 460.1523100000002 1023.9759000000006 C 463.81898000000024 1024.6141000000007 467.1039800000002 1025.3826000000006 467.45231000000024 1025.6836000000005 C 467.8006400000002 1025.9846000000005 468.7615300000002 1026.2309000000005 469.5876100000002 1026.2309000000005 C 470.4136900000002 1026.2309000000005 471.7786900000002 1026.4925000000005 472.6209400000002 1026.8123000000005 C 473.4632000000002 1027.1321000000005 475.3523100000002 1027.7567000000006 476.8189800000002 1028.2004000000004 C 486.0922500000002 1031.0055000000004 507.02826000000016 1040.1712000000005 507.7078700000002 1041.7234000000003 C 507.8300900000002 1042.0025000000003 508.2138300000002 1042.2309000000002 508.5606200000002 1042.2309000000002 C 509.3512600000002 1042.2309000000002 520.9212200000002 1049.9087000000002 525.8189800000002 1053.6835000000003 C 529.5387800000002 1056.5504000000003 541.3612500000003 1068.0853000000004 546.1954700000002 1073.5642000000003 C 549.9896000000002 1077.8644000000002 556.4856500000002 1086.6710000000003 556.4856500000002 1087.5145000000002 C 556.4856500000002 1087.9085000000002 556.7856500000001 1088.2309000000002 557.1523200000001 1088.2309000000002 C 557.5189900000001 1088.2309000000002 557.8189900000001 1088.5518000000002 557.8189900000001 1088.9441000000002 C 557.8189900000001 1089.3364000000001 558.6695100000001 1090.9114000000002 559.7090300000001 1092.4441000000002 C 561.9271900000001 1095.7147000000002 567.96351 1108.0577 569.2226400000001 1111.8976000000002 C 569.7035900000001 1113.3642000000002 570.28047 1114.8642000000002 570.50462 1115.2309000000002 C 570.7287600000001 1115.5976000000003 571.3009800000001 1117.2476000000001 571.7762200000001 1118.8976000000002 C 572.2514600000001 1120.5476000000003 572.8933900000001 1122.6476000000002 573.2027300000001 1123.5642000000003 C 574.4267300000001 1127.1913000000002 576.62904 1140.1515000000002 577.67753 1149.8975000000003 C 578.2648300000001 1155.3567000000003 577.5445100000001 1174.2171000000003 576.45538 1181.8975000000003 C 575.19712 1190.7707000000003 573.75371 1196.4324000000004 571.74121 1200.3885000000002 C 571.41732 1201.0252000000003 571.15232 1202.0043000000003 571.15232 1202.5642000000003 C 571.15232 1203.1242000000002 570.88732 1204.1032000000002 570.56343 1204.7399000000003 C 570.23955 1205.3766000000003 569.6605500000001 1206.6475000000003 569.27677 1207.5642000000003 C 568.0887200000001 1210.4019000000003 564.5085700000001 1217.7888000000003 563.2353800000001 1220.0294000000004 C 560.03344 1225.6641000000004 557.48764 1229.5642000000003 557.01146 1229.5642000000003 C 556.7222700000001 1229.5642000000003 556.4856500000001 1229.8866000000003 556.4856500000001 1230.2806000000003 C 556.4856500000001 1231.6641000000002 549.1403300000001 1240.7365000000002 543.1345500000001 1246.7709000000002 C 536.5954200000001 1253.3412000000003 526.0073400000001 1262.1887000000002 524.6523200000001 1262.2148000000002 C 524.1939800000001 1262.2248000000002 523.8189800000001 1262.5309000000002 523.8189800000001 1262.8975000000003 C 523.8189800000001 1263.2642000000003 523.4980300000001 1263.5642000000003 523.1057700000001 1263.5642000000003 C 522.7135000000001 1263.5642000000003 521.1385000000001 1264.4150000000002 519.6057700000001 1265.4549000000002 C 518.0730300000001 1266.4947000000002 515.7689800000002 1267.8869000000002 514.4856500000001 1268.5487000000003 C 513.2023100000001 1269.2104000000004 510.5023100000001 1270.6002000000003 508.4856500000001 1271.6371000000004 C 506.4689800000001 1272.6740000000004 504.46420000000006 1273.5318000000004 504.03057000000007 1273.5433000000003 C 503.59695000000005 1273.5553000000002 503.0598500000001 1274.1386000000002 502.83702000000005 1274.8407000000002 C 502.43826000000007 1276.0971000000002 501.49570000000006 1293.6868000000002 500.4940500000001 1318.5642000000003 C 500.21355000000005 1325.5309000000002 499.61818000000005 1338.7309000000002 499.17100000000005 1347.8975000000003 C 498.72125000000005 1357.1168000000002 498.54138000000006 1369.8549000000003 498.76846000000006 1376.4045000000003 C 499.1435200000001 1387.2218000000003 499.5430800000001 1390.7830000000004 501.14254000000005 1397.5642000000003 C 501.44523000000004 1398.8475000000003 502.49408000000005 1403.3475000000003 503.47330000000005 1407.5642000000003 C 505.24114000000003 1415.1768000000002 507.11965000000004 1421.3949000000002 508.8104200000001 1425.2309000000002 C 509.2952600000001 1426.3309000000002 510.4962300000001 1429.1809000000003 511.4792500000001 1431.5642000000003 C 513.4921200000001 1436.4445000000003 514.2950600000001 1438.1130000000003 516.4094100000001 1441.8093000000003 C 517.2206100000001 1443.2275000000004 517.7711 1444.5010000000004 517.6327200000001 1444.6394000000003 C 517.4943400000001 1444.7777000000003 515.7546400000001 1443.2998000000002 513.7667200000001 1441.3550000000002 z M 331.41331 1427.3187 C 327.55280000000005 1422.9354 326.63657 1421.7859 323.99239 1418.0088 C 322.66612 1416.1143 321.0642 1413.9642000000001 320.43257 1413.2309 C 318.71233 1411.2337 312.30255 1399.1039 309.51157 1392.5642 C 308.88564 1391.0975 308.09873 1389.3766 307.76289 1388.7399 C 307.42705 1388.1032 307.15227000000004 1386.9959000000001 307.15227000000004 1386.2793 C 307.15227000000004 1385.5626 306.88686000000007 1384.8121999999998 306.56247 1384.6117 C 306.23807 1384.4112 305.80342 1383.4185 305.59656 1382.4057 C 305.3897 1381.3929 304.74975 1378.4642000000001 304.17445000000004 1375.8975 C 303.23094000000003 1371.6882 302.5676 1367.0520000000001 301.37204 1356.3112 C 300.73837000000003 1350.6184 302.38555 1335.5272 304.90991 1323.8975 C 305.9628 1319.0469 306.12395000000004 1318.4717 308.73888000000005 1310.2309 C 309.61149000000006 1307.4809 310.99190000000004 1302.9809 311.8064600000001 1300.2309 C 312.62101000000007 1297.4809 313.53445000000005 1294.6309 313.83632000000006 1293.8975 C 314.13819000000007 1293.1642 314.57054000000005 1291.6642 314.79710000000006 1290.5642 C 315.02366000000006 1289.4642000000001 315.54332000000005 1287.2142000000001 315.9519000000001 1285.5642 C 316.3604700000001 1283.9142 316.7227000000001 1281.3642 316.7568500000001 1279.8975 L 316.8189500000001 1277.2309 L 312.2183700000001 1277.0315 C 309.61673000000013 1276.9187 307.31389000000013 1277.1359 306.9183600000001 1277.5315 C 306.5336800000001 1277.9161000000001 304.9430600000001 1278.2309 303.3836500000001 1278.2309 C 301.8242300000001 1278.2309 299.8592300000001 1278.5015 299.0169800000001 1278.8323 C 298.1747300000001 1279.163 294.7856100000001 1280.25 291.4856100000001 1281.2477000000001 C 285.4662700000001 1283.0676 284.4082800000001 1283.4259000000002 280.95424000000014 1284.8145000000002 C 279.92866000000015 1285.2269000000001 278.41365000000013 1285.5642000000003 277.58757000000014 1285.5642000000003 C 276.76149000000015 1285.5642000000003 275.8006100000001 1285.8276000000003 275.45228000000014 1286.1496000000002 C 273.52421000000015 1287.9316000000001 254.47022000000015 1288.8777000000002 247.68509000000014 1287.5283000000002 C 236.48156000000014 1285.3002000000001 223.63420000000013 1274.9867000000002 218.23052000000015 1263.8830000000003 C 214.37341000000015 1255.9572000000003 214.34044000000014 1255.8528000000003 213.07827000000015 1247.5642000000003 C 212.34234000000015 1242.7314000000003 212.77929000000015 1232.8402000000003 213.81411000000014 1230.9066000000003 C 214.18343000000013 1230.2165000000002 214.48560000000015 1229.0281000000002 214.48560000000015 1228.2657000000002 C 214.48560000000015 1227.5032 214.75060000000013 1226.3585 215.07449000000014 1225.7218000000003 C 215.92957000000013 1224.0409000000002 216.88695000000013 1221.6805000000002 218.24799000000013 1217.8975000000003 C 219.40964000000014 1214.6688000000004 225.99901000000014 1201.3244000000002 229.11147000000014 1195.8975000000003 C 234.28076000000013 1186.8844000000004 240.53516000000013 1177.0525000000002 243.72871000000015 1172.9193000000002 C 245.06167000000016 1171.1942000000001 247.05224000000015 1168.6085000000003 248.15220000000014 1167.1734000000004 C 249.25217000000015 1165.7384000000004 251.24402000000015 1163.3642000000004 252.57855000000015 1161.8975000000003 C 253.91308000000015 1160.4309000000003 255.84832000000014 1158.1809000000003 256.87908000000016 1156.8975000000003 C 259.62945000000013 1153.4733000000003 273.65308000000016 1139.2050000000002 277.25951000000015 1136.1617000000003 L 280.36675000000014 1133.5396000000003 L 275.69912000000016 1142.6576000000002 C 273.1319300000002 1147.6726000000003 270.77727000000016 1152.2531000000001 270.46655000000015 1152.8366000000003 C 270.1558200000002 1153.4201000000003 269.09730000000013 1155.6975000000002 268.1142800000002 1157.8975000000003 C 264.9303400000002 1165.0232000000003 262.4214900000002 1170.3388000000002 256.39873000000017 1182.7198000000003 C 253.14651000000018 1189.4054000000003 250.48561000000018 1195.1554000000003 250.48561000000018 1195.4976000000004 C 250.48561000000018 1195.8398000000004 250.24717000000018 1196.2198000000003 249.95575000000017 1196.3420000000003 C 249.35246000000018 1196.5950000000003 243.15227000000016 1209.2752000000003 243.15227000000016 1210.2559000000003 C 243.15227000000016 1210.6088000000004 242.85227000000015 1210.8975000000003 242.48561000000015 1210.8975000000003 C 242.11894000000015 1210.8975000000003 241.81894000000014 1211.4975000000002 241.81894000000014 1212.2309000000002 C 241.81894000000014 1212.9642000000003 241.51894000000013 1213.5642000000003 241.15227000000013 1213.5642000000003 C 240.78561000000013 1213.5642000000003 240.48561000000012 1213.8529000000003 240.48561000000012 1214.2058000000002 C 240.48561000000012 1214.5587000000003 239.1054700000001 1217.7837000000002 237.41863000000012 1221.3725000000002 C 235.73180000000013 1224.9613000000002 234.04680000000013 1228.6475000000003 233.67419000000012 1229.5642000000003 C 233.3015700000001 1230.4809000000002 232.76484000000013 1231.6988000000003 232.48144000000013 1232.2706000000003 C 231.46295000000015 1234.3258000000003 230.36476000000013 1241.0434000000002 230.95137000000014 1241.6300000000003 C 231.55726000000013 1242.2359000000004 232.82324000000014 1241.9504000000004 238.81894000000014 1239.8562000000004 C 248.56866000000014 1236.4508000000003 250.86372000000014 1235.7460000000003 251.32242000000014 1236.0167000000004 C 251.91274000000013 1236.3651000000004 248.49973000000014 1241.4437000000003 246.69824000000014 1242.8975000000003 C 243.15855000000013 1245.7542000000003 240.47624000000013 1247.5566000000003 237.27055000000013 1249.2327000000002 C 234.08433000000014 1250.8985000000002 233.76565000000014 1251.2611000000002 234.14821000000012 1252.7854000000002 C 235.24714000000012 1257.1639000000002 240.46822000000012 1262.1731000000002 246.48561000000012 1264.6222000000002 C 250.4725000000001 1266.2449000000001 251.32528000000013 1266.3534000000002 257.1522700000001 1265.9796000000003 C 263.9198200000001 1265.5454000000004 270.5754800000001 1263.8724000000004 281.8189400000001 1259.7792000000004 L 288.8189400000001 1257.2309000000005 L 312.8189500000001 1257.0941000000005 C 335.5195900000001 1256.9647000000004 342.13540000000006 1256.5055000000004 345.3099000000001 1254.8387000000005 C 345.94659000000007 1254.5044000000005 346.9523900000001 1254.2309000000005 347.5450000000001 1254.2309000000005 C 349.4691200000001 1254.2309000000005 359.4390400000001 1249.1904000000004 362.05095000000006 1246.8971000000004 C 364.62235000000004 1244.6394000000005 369.1522800000001 1238.1815000000004 369.1522800000001 1236.7735000000005 C 369.1522800000001 1236.3528000000006 369.33936000000006 1236.1957000000004 369.5680100000001 1236.4244000000006 C 370.1367000000001 1236.9931000000006 367.1876200000001 1244.3250000000005 361.40348000000006 1256.7228000000005 C 360.16532000000007 1259.3767000000005 359.14561000000003 1261.7767000000006 359.13746000000003 1262.0561000000005 C 359.12946000000005 1262.3356000000006 358.53598000000005 1263.3142000000005 357.81895000000003 1264.2309000000005 C 357.10192 1265.1475000000005 356.50859 1266.3975000000005 356.50044 1267.0087000000005 C 356.49244000000004 1267.6198000000006 356.26062 1268.2198000000005 355.98562000000004 1268.3420000000006 C 355.10917000000006 1268.7315000000006 337.77363 1304.3914000000007 335.1358 1311.2309000000005 C 334.85297 1311.9642000000006 334.17953 1313.6142000000004 333.63927 1314.8975000000005 C 333.09902 1316.1809000000005 331.67779 1320.2309000000005 330.48099 1323.8975000000005 C 329.28419 1327.5642000000005 328.07983 1331.1642000000004 327.80463000000003 1331.8975000000005 C 326.42074 1335.5852000000004 324.84803000000005 1343.1940000000004 323.67073000000005 1351.8975000000005 C 322.58490000000006 1359.9248000000005 322.78353000000004 1384.5711000000006 324.00116 1392.8975000000005 C 325.81354000000005 1405.2910000000004 325.99582000000004 1406.2615000000005 326.57872000000003 1406.6218000000006 C 326.89418 1406.8167000000005 327.15228 1407.8626000000006 327.15228 1408.9459000000006 C 327.15228 1410.0293000000006 327.41616 1411.4366000000007 327.73868000000004 1412.0733000000007 C 328.06121 1412.7099000000007 329.15075 1415.7809000000007 330.15989 1418.8975000000007 C 331.16904 1422.0142000000008 332.55309 1425.7413000000008 333.23556 1427.1799000000008 C 333.91803000000004 1428.6186000000007 334.37096 1429.9011000000007 334.24205 1430.0300000000009 C 334.11315 1430.1589000000008 332.84022 1428.9388000000008 331.41332 1427.318700000001 z M 488.36774 1207.0914 C 487.38624000000004 1206.9413 486.22450000000003 1206.3862 485.78611 1205.858 C 484.80528 1204.6761999999999 483.03196 1204.6179 481.91895 1205.7309 C 480.82132 1206.8285 464.68811999999997 1206.8837 462.41987 1205.7979 C 461.53936 1205.3763000000001 459.46895 1204.4163 457.81895000000003 1203.6645 C 455.02995000000004 1202.3938 454.95418 1202.2953 456.7416 1202.2644 C 463.37473 1202.1498 474.84018000000003 1196.1696 480.23245000000003 1190.0121 C 482.98046000000005 1186.874 486.51341 1180.5863 486.49604000000005 1178.8645 C 486.4900400000001 1178.2962 486.82381000000004 1177.493 487.2371600000001 1177.0795999999998 C 488.25883000000005 1176.0579999999998 488.39835000000005 1159.6263 487.40341000000006 1157.4989999999998 C 486.99152000000004 1156.6183999999998 485.95024000000006 1154.3977999999997 485.08945000000006 1152.5644999999997 C 484.22866000000005 1150.7311999999997 482.78627000000006 1148.1811999999998 481.88414000000006 1146.8977999999997 C 479.4327600000001 1143.4105999999997 473.0468200000001 1137.4197999999997 470.09044000000006 1135.8337999999997 C 468.65779000000003 1135.0652999999998 466.3726300000001 1133.8021999999996 465.01231000000007 1133.0268999999996 C 460.0778400000001 1130.2145999999996 455.3846300000001 1129.3139999999996 445.48561000000007 1129.2797999999996 C 435.59319000000005 1129.2457999999995 429.9920900000001 1130.1128999999996 420.42133000000007 1133.1610999999996 C 413.80845000000005 1135.2671999999995 405.2799800000001 1138.7901999999997 403.0493600000001 1140.3372999999997 C 402.0760900000001 1141.0121999999997 401.0786200000001 1141.5644999999997 400.8327700000001 1141.5644999999997 C 400.1448100000001 1141.5644999999997 391.0100000000001 1147.5312999999996 389.3189400000001 1149.0851999999998 C 388.1760700000001 1150.1353999999997 387.8189400000001 1150.2295999999997 387.8189400000001 1149.4806999999998 C 387.8189400000001 1148.9400999999998 388.06936000000013 1148.2127999999998 388.37542000000013 1147.8645 C 388.68148000000014 1147.5161999999998 389.48231000000015 1145.7312 390.1550300000001 1143.8978 C 393.6375000000001 1134.4072999999999 401.66702000000015 1123.2444 410.3247500000001 1115.8572 C 417.2970800000001 1109.9080999999999 422.30317000000014 1107.4558 435.5329400000001 1103.5086999999999 C 438.2878800000001 1102.6867 452.6103600000001 1102.7321 457.5298400000001 1103.5786999999998 C 463.5157200000001 1104.6083999999998 470.2934000000001 1106.7958999999998 475.4856200000001 1109.3738999999998 C 491.4189900000001 1117.2851999999998 504.7925600000001 1133.0480999999997 509.8672600000001 1149.8981999999999 C 510.3089700000001 1151.3648999999998 510.9049700000001 1153.1648999999998 511.1917100000001 1153.8981999999999 C 512.2142300000002 1156.5132999999998 512.8099800000001 1161.9903 512.7210000000001 1167.9573999999998 C 512.5452800000002 1179.7414999999999 505.99549000000013 1194.9270999999999 498.2455200000001 1201.5185999999999 C 497.19679000000014 1202.4106 495.9967900000001 1203.4707999999998 495.5788500000001 1203.8745999999999 C 494.4747200000001 1204.9414 490.6529500000001 1207.5821999999998 490.3827000000001 1207.465 C 490.2559700000001 1207.4099999999999 489.3492400000001 1207.2423 488.36774000000014 1207.0920999999998 z M 296.16988000000003 1189.8074 C 297.16592 1188.1077 299.18236 1184.2827 300.65087000000005 1181.3074 C 305.6116200000001 1171.2561999999998 309.84087000000005 1166.4369 316.30430000000007 1163.4701 C 320.44191000000006 1161.5708 320.50369000000006 1161.5642 334.0911000000001 1161.5642 L 347.7258600000001 1161.5642 L 347.12893000000014 1163.6456 C 345.88751000000013 1167.9742 341.4799400000001 1175.9838 338.70960000000014 1178.9455 C 335.96858000000014 1181.8758 333.81041000000016 1183.1073000000001 328.4208400000001 1184.8164 C 326.9818300000001 1185.2727 322.1825500000001 1185.5192 316.4208400000001 1185.4329 C 307.1120300000001 1185.2933 306.7156300000001 1185.3439 303.4347300000001 1187.1025 C 301.5734200000001 1188.1 299.1922900000001 1189.812 298.14334000000014 1190.9069 C 295.1156800000001 1194.0671 294.0285000000001 1193.4613 296.16988000000015 1189.8074 z" stroke-linecap="round" />
</g>
</svg>